<?xml version="1.0" encoding="UTF-8" standalone="no"?>
<!-- Generator: Adobe Illustrator 16.0.0, SVG Export Plug-In . SVG Version: 6.00 Build 0)  -->

<svg
   xmlns:dc="http://purl.org/dc/elements/1.1/"
   xmlns:cc="http://creativecommons.org/ns#"
   xmlns:rdf="http://www.w3.org/1999/02/22-rdf-syntax-ns#"
   xmlns:svg="http://www.w3.org/2000/svg"
   xmlns="http://www.w3.org/2000/svg"
   xmlns:sodipodi="http://sodipodi.sourceforge.net/DTD/sodipodi-0.dtd"
   xmlns:inkscape="http://www.inkscape.org/namespaces/inkscape"
   version="1.1"
   id="Capa_1"
   x="0px"
   y="0px"
   width="575.304px"
   height="575.305px"
   viewBox="0 0 575.304 575.305"
   style="enable-background:new 0 0 575.304 575.305;"
   xml:space="preserve"
   sodipodi:docname="icono.svg"
   inkscape:version="0.92.4 (5da689c313, 2019-01-14)"><metadata
   id="metadata41"><rdf:RDF><cc:Work
       rdf:about=""><dc:format>image/svg+xml</dc:format><dc:type
         rdf:resource="http://purl.org/dc/dcmitype/StillImage" /></cc:Work></rdf:RDF></metadata><defs
   id="defs39" /><sodipodi:namedview
   pagecolor="#ffffff"
   bordercolor="#666666"
   borderopacity="1"
   objecttolerance="10"
   gridtolerance="10"
   guidetolerance="10"
   inkscape:pageopacity="0"
   inkscape:pageshadow="2"
   inkscape:window-width="1920"
   inkscape:window-height="1017"
   id="namedview37"
   showgrid="false"
   inkscape:zoom="0.41021719"
   inkscape:cx="287.65201"
   inkscape:cy="287.6525"
   inkscape:window-x="-8"
   inkscape:window-y="-8"
   inkscape:window-maximized="1"
   inkscape:current-layer="Capa_1" />
<g
   id="g4">
	<path
   d="M531.535,268.521l-53.354-6.683V156.99c0-4.137-2.558-7.846-6.426-9.29l-41.151-15.435V76.427   c0-3.77-2.13-7.197-5.483-8.874L292.071,1.028c0,0-1.774-1.028-4.431-1.028c-2.668,0-4.431,1.028-4.431,1.028L150.161,67.553   c-3.354,1.689-5.471,5.116-5.471,8.886v55.839l-41.164,15.435c-3.868,1.457-6.426,5.153-6.426,9.29v104.677l-53.354,6.646   c-4.958,0.612-8.678,4.847-8.678,9.841v196.169c0,4.139,2.558,7.848,6.426,9.291l242.67,91.029c0,0,1.628,0.648,3.488,0.648   c1.873,0,3.489-0.648,3.489-0.648l242.683-91.238c3.855-1.455,6.413-5.164,6.413-9.289V278.375   C540.212,273.368,536.503,269.146,531.535,268.521z M125.105,444.557c0,1.016-0.465,1.971-1.273,2.607   c-0.588,0.453-1.298,0.697-2.032,0.697c-0.269,0-0.539-0.037-0.795-0.098l-65.827-16.463c-1.469-0.355-2.497-1.689-2.497-3.207   v-25.201c0-0.98,0.44-1.922,1.2-2.547c0.747-0.637,1.762-0.881,2.717-0.709l65.827,12.338c1.566,0.293,2.693,1.664,2.693,3.256   v29.326H125.105z M125.105,385.928c0,0.941-0.404,1.848-1.114,2.473c-0.612,0.537-1.383,0.832-2.191,0.832   c-0.146,0-0.269-0.012-0.404-0.025l-65.827-8.236c-1.665-0.209-2.889-1.617-2.889-3.281v-25.178c0-0.918,0.367-1.799,1.041-2.41   c0.673-0.625,1.554-0.943,2.46-0.883l65.827,4.113c1.75,0.109,3.097,1.555,3.097,3.305V385.928z M125.105,327.297   c0,1.824-1.481,3.318-3.305,3.318H55.986c-1.836,0-3.305-1.482-3.305-3.318v-25.201c0-1.738,1.346-3.195,3.097-3.305l65.814-4.113   c0.906-0.061,1.824,0.258,2.485,0.895c0.661,0.623,1.028,1.492,1.028,2.398V327.297z M264.054,479.295   c0,1.016-0.465,1.971-1.273,2.605c-0.575,0.453-1.297,0.699-2.032,0.699c-0.257,0-0.526-0.025-0.796-0.1l-106.182-26.547   c-1.469-0.367-2.509-1.689-2.509-3.207v-31.359c0-0.979,0.44-1.91,1.199-2.547c0.759-0.623,1.763-0.881,2.729-0.709l106.182,19.914   c1.567,0.281,2.705,1.664,2.705,3.256v37.994H264.054z M264.054,403.297c0,0.941-0.404,1.848-1.114,2.471   c-0.625,0.539-1.383,0.834-2.203,0.834c-0.135,0-0.257-0.014-0.404-0.025l-106.194-13.281c-1.652-0.207-2.889-1.615-2.889-3.279   v-31.359c0-0.906,0.379-1.787,1.053-2.41c0.673-0.625,1.554-0.932,2.46-0.883l106.194,6.635c1.738,0.109,3.097,1.555,3.097,3.305   V403.297z M264.054,327.297c0,1.824-1.481,3.318-3.317,3.318H155.179c-1.812,0-3.292-1.482-3.292-3.318v-31.383   c0-1.75,1.347-3.193,3.097-3.305l105.57-6.597c0.906-0.061,1.799,0.257,2.472,0.881c0.673,0.624,1.041,1.493,1.041,2.411v37.992   H264.054z M264.054,251.312c0,1.665-1.249,3.072-2.901,3.28L122.217,271.96c-0.135,0.025-0.282,0.037-0.417,0.037   c-0.783,0-1.579-0.294-2.179-0.833c-0.722-0.624-1.126-1.53-1.126-2.473l-0.012-29.314c0-1.591,1.138-2.962,2.705-3.256   l138.948-26.059c0.967-0.184,1.971,0.086,2.73,0.71c0.759,0.637,1.199,1.567,1.199,2.546v37.993H264.054z M264.054,175.313   c0,1.518-1.041,2.852-2.497,3.219l-138.96,34.737c-0.257,0.061-0.539,0.098-0.796,0.098c-0.734,0-1.444-0.245-2.032-0.71   c-0.808-0.624-1.273-1.591-1.273-2.607v-29.315c0-1.444,0.942-2.729,2.326-3.158l138.948-43.416   c1.004-0.318,2.093-0.134,2.938,0.49c0.844,0.625,1.346,1.616,1.346,2.668V175.313z M264.054,99.328   c0,1.371-0.845,2.607-2.142,3.097l-88.018,32.999c-0.379,0.147-0.771,0.208-1.175,0.208c-0.661,0-1.31-0.208-1.873-0.6   c-0.894-0.612-1.42-1.628-1.42-2.717V99.842c0-1.31,0.771-2.509,1.983-3.036l88.018-38.495c1.016-0.453,2.203-0.355,3.133,0.257   c0.93,0.625,1.493,1.665,1.493,2.779V99.328z M311.177,61.335c0-1.114,0.563-2.154,1.494-2.779c0.93-0.612,2.117-0.71,3.133-0.257   l88.019,38.495c1.211,0.526,1.982,1.726,1.982,3.036v32.485c0,1.089-0.526,2.105-1.42,2.717c-0.563,0.392-1.224,0.6-1.873,0.6   c-0.392,0-0.783-0.073-1.175-0.208l-88.018-32.999c-1.285-0.489-2.142-1.726-2.142-3.097L311.177,61.335L311.177,61.335z    M311.177,137.321c0-1.041,0.502-2.032,1.347-2.656s1.935-0.808,2.938-0.489l138.949,43.415c1.383,0.428,2.325,1.713,2.325,3.158   v29.315c0,1.016-0.465,1.983-1.273,2.607c-0.587,0.465-1.297,0.71-2.031,0.71c-0.257,0-0.539-0.037-0.796-0.098l-138.961-34.737   c-1.469-0.367-2.497-1.701-2.497-3.219V137.321L311.177,137.321z M311.177,213.319c0-0.979,0.441-1.909,1.2-2.546   c0.759-0.624,1.763-0.881,2.729-0.71l138.948,26.059c1.566,0.293,2.705,1.665,2.705,3.256v29.314c0,0.943-0.416,1.849-1.126,2.473   c-0.612,0.539-1.383,0.833-2.191,0.833c-0.146,0-0.257-0.012-0.403-0.037l-138.961-17.368c-1.665-0.208-2.9-1.616-2.9-3.28   L311.177,213.319L311.177,213.319z M405.805,522.281c0,1.357-0.856,2.607-2.154,3.084l-63.33,23.758   c-0.379,0.146-0.759,0.195-1.162,0.195c-0.661,0-1.322-0.195-1.873-0.574c-0.894-0.625-1.432-1.629-1.432-2.73V436.662   c0-1.592,1.138-2.963,2.705-3.256l63.329-11.885c0.979-0.184,1.971,0.086,2.729,0.709c0.759,0.637,1.199,1.566,1.199,2.547v97.504   H405.805z M423.982,390.027c0,1.666-1.249,3.072-2.901,3.281l-106.182,13.279c-0.147,0.014-0.27,0.025-0.404,0.025   c-0.808,0-1.579-0.295-2.203-0.832c-0.71-0.625-1.114-1.531-1.114-2.473v-37.994c0-1.75,1.347-3.193,3.098-3.305l106.193-6.633   c0.906-0.049,1.8,0.27,2.461,0.881c0.673,0.637,1.053,1.506,1.053,2.41V390.027z M423.982,327.297c0,1.824-1.481,3.318-3.317,3.318   H314.483c-1.836,0-3.317-1.482-3.317-3.318v-37.992c0-0.918,0.367-1.787,1.04-2.411c0.674-0.625,1.555-0.942,2.461-0.881   l106.193,6.634c1.751,0.109,3.109,1.555,3.109,3.293v31.357H423.982z M522.55,428.105c0,1.52-1.028,2.828-2.497,3.207   l-65.814,16.463c-0.27,0.062-0.551,0.1-0.808,0.1c-0.734,0-1.444-0.246-2.032-0.699c-0.795-0.637-1.272-1.59-1.272-2.607v-29.326   c0-1.592,1.126-2.949,2.692-3.256l65.827-12.338c0.954-0.184,1.958,0.074,2.729,0.709c0.746,0.625,1.188,1.568,1.188,2.547v25.201   H522.55z M522.55,377.701c0,1.666-1.224,3.072-2.889,3.281l-65.827,8.238c-0.134,0.012-0.257,0.023-0.403,0.023   c-0.796,0-1.579-0.293-2.191-0.832c-0.71-0.625-1.113-1.529-1.113-2.473v-29.314c0-1.738,1.346-3.195,3.097-3.305l65.826-4.113   c0.906-0.061,1.787,0.258,2.461,0.881c0.673,0.625,1.04,1.494,1.04,2.412V377.701L522.55,377.701z M522.55,327.297   c0,1.824-1.469,3.318-3.317,3.318h-65.814c-1.812,0-3.305-1.482-3.305-3.318v-29.314c0-0.904,0.367-1.787,1.028-2.398   c0.673-0.637,1.566-0.955,2.484-0.895l65.814,4.113c1.751,0.111,3.097,1.555,3.097,3.305v25.189H522.55z"
   id="path2" />
</g>
<g
   id="g6">
</g>
<g
   id="g8">
</g>
<g
   id="g10">
</g>
<g
   id="g12">
</g>
<g
   id="g14">
</g>
<g
   id="g16">
</g>
<g
   id="g18">
</g>
<g
   id="g20">
</g>
<g
   id="g22">
</g>
<g
   id="g24">
</g>
<g
   id="g26">
</g>
<g
   id="g28">
</g>
<g
   id="g30">
</g>
<g
   id="g32">
</g>
<g
   id="g34">
</g>
<path
   style="fill:#ececec;stroke-width:2.43773293"
   d="M 163.32762,528.28848 C 96.960343,503.23624 41.288615,481.89106 39.612673,480.85476 34.908661,477.94608 35.21095,276.2099 39.925183,272.29744 c 1.847822,-1.53356 13.091866,-3.89718 24.986764,-5.25247 36.869923,-4.20094 32.591096,3.37907 32.634215,-57.81203 0.02048,-29.13584 0.941401,-54.39951 2.046376,-56.1415 1.104982,-1.74198 11.783732,-6.84211 23.730572,-11.33361 l 21.72152,-8.16638 1.21886,-31.32671 1.21887,-31.326709 70.08482,-35.347129 70.08483,-35.3471287 70.08482,35.3471287 70.08483,35.347129 0.68059,30.856799 0.68059,30.8568 22.86625,8.85994 c 12.57644,4.87297 23.5142,10.54852 24.30617,12.61234 0.79195,2.06382 1.43992,27.22684 1.43992,55.91783 0,60.23572 -4.3934,52.58838 32.8586,57.19501 12.03881,1.48872 23.28286,3.86376 24.98676,5.27786 2.41516,2.0044 3.09797,25.05285 3.09797,104.57163 0,95.55716 -0.27593,102.14821 -4.36817,104.33831 -7.22769,3.86815 -245.71496,92.92502 -248.13453,92.65941 -1.23223,-0.13527 -56.5409,-20.74323 -122.90819,-45.79548 z m 206.48313,10.90791 c 15.81697,-5.91589 30.67783,-11.51817 33.02414,-12.44948 3.87719,-1.53894 4.26604,-6.44688 4.26604,-53.84374 0,-46.93768 -0.40396,-52.15045 -4.0414,-52.15045 -6.77212,0 -57.75375,9.81402 -63.6057,12.24415 -5.46161,2.26806 -5.48489,2.51427 -5.48489,57.99154 0,30.64263 0.73132,56.44518 1.62516,57.339 2.56847,2.56846 3.85296,2.22569 34.21665,-9.13102 z M 265.19446,460.33802 c 0.3855,-12.38664 0.3855,-22.56602 0,-22.62082 -0.3855,-0.0548 -25.38296,-4.81148 -55.54991,-10.57038 -30.16694,-5.75888 -55.67173,-10.03722 -56.67729,-9.5074 -1.00557,0.52981 -1.8283,9.5425 -1.8283,20.02822 v 19.0649 l 53.02069,13.50016 c 29.16138,7.42509 54.66617,13.30359 56.67729,13.06333 2.89699,-0.34609 3.80221,-5.11532 4.35752,-22.95801 z M 126.76163,430.38671 c 0,-9.1627 -1.05318,-17.31036 -2.34039,-18.10589 -4.40911,-2.72497 -66.543508,-13.74857 -70.005561,-12.42006 -2.590473,0.99406 -3.275768,5.15739 -2.731482,16.59438 l 0.726575,15.26738 34.128262,8.76967 c 18.770546,4.82332 35.499486,8.27115 37.175426,7.66184 2.03241,-0.73892 3.04717,-6.65576 3.04717,-17.76732 z m 396.85818,-13.93157 c 0.5443,-11.43699 -0.1409,-15.60032 -2.73148,-16.59438 -3.46204,-1.32851 -65.59644,9.69509 -70.00555,12.42006 -3.60087,2.22545 -2.96204,34.67295 0.70677,35.89891 1.67595,0.56002 18.40489,-2.91375 37.17543,-7.7195 l 34.12826,-8.73771 z M 265.19354,384.66815 c 0.6758,-21.51255 0.5073,-22.32234 -4.87547,-23.43037 -5.95672,-1.2262 -88.00541,-6.34744 -101.25648,-6.32016 l -7.92263,0.0163 v 19.50186 c 0,10.72603 0.82273,19.55247 1.8283,19.61432 1.00556,0.0619 25.41337,3.22059 54.23956,7.0194 28.82619,3.79882 53.50824,6.6762 54.84899,6.39413 1.34632,-0.28322 2.75113,-10.4891 3.13773,-22.79549 z m 100.46592,16.64294 c 23.46319,-2.71273 46.22552,-5.53124 50.58296,-6.26331 l 7.92264,-1.33106 v -19.39138 -19.39141 l -7.92264,-0.0171 c -13.10617,-0.0271 -95.26604,5.08733 -101.16592,6.29742 -5.1881,1.0641 -5.48489,2.28765 -5.48489,22.61185 0,11.81777 0.71135,22.1982 1.58077,23.06761 0.86942,0.86945 3.88611,1.0786 6.70376,0.46483 2.81766,-0.61377 24.32014,-3.33548 47.78332,-6.04823 z m -239.40047,-29.89974 -0.71623,-17.65087 -10.9698,-1.54553 c -6.03339,-0.85003 -22.488083,-1.95723 -36.565992,-2.46042 l -25.596196,-0.91493 -0.726575,15.26737 c -0.579893,12.1852 0.05914,15.5689 3.165381,16.76088 5.68401,2.18116 46.832322,7.5607 60.439612,7.90159 l 11.68603,0.29275 z m 365.85263,14.16025 c 15.24817,-1.89556 28.7457,-4.46819 29.99448,-5.71697 1.24878,-1.24878 1.93675,-8.73803 1.52882,-16.64277 l -0.74168,-14.37226 -25.59619,0.91493 c -14.07791,0.50319 -30.53261,1.61039 -36.566,2.46042 l -10.9698,1.54553 -0.71623,17.65087 -0.71623,17.65084 8.02943,-0.0219 c 4.4162,-0.0122 20.50521,-1.57297 35.7534,-3.46853 z m -365.85263,-72.68857 -0.71623,-17.67356 -31.690527,0.67584 c -45.013616,0.95998 -42.660328,-0.0811 -42.660328,18.87246 v 15.79883 h 37.891659 37.891656 z m 139.45342,-4.12215 c 0,-11.98765 -0.84596,-22.31857 -1.87991,-22.9576 -1.03395,-0.639 -24.89326,0.36832 -53.02069,2.23852 -28.12743,1.87021 -53.0605,3.42529 -55.40682,3.45571 -3.70277,0.0481 -4.26603,2.63026 -4.26603,19.55722 v 19.50187 h 57.28672 57.28673 z m 158.45265,2.29385 c 0,-16.92696 -0.56327,-19.50917 -4.26604,-19.55722 -2.34631,-0.0305 -27.27937,-1.5855 -55.40682,-3.45571 -28.12744,-1.8702 -51.98675,-2.87752 -53.02069,-2.23852 -1.03394,0.63903 -1.8799,10.96995 -1.8799,22.9576 v 21.79572 h 57.28672 57.28673 z m 99.94705,3.70304 c 0,-18.95357 2.35329,-17.91248 -42.66033,-18.87246 l -31.69053,-0.67584 -0.71623,17.67356 -0.71623,17.67357 h 37.89166 37.89166 z M 192.58042,264.62555 c 34.18921,-4.1324 64.6304,-8.51659 67.64709,-9.74267 5.08033,-2.06478 5.4849,-3.75084 5.4849,-22.85834 0,-11.34602 -0.97882,-21.23407 -2.17517,-21.97345 -1.19634,-0.73938 -34.26801,4.68078 -73.4926,12.0448 -39.22458,7.36401 -71.70364,13.38912 -72.17569,13.38912 -0.47204,0 -0.85825,8.22735 -0.85825,18.283 v 18.283 l 6.70376,0.0441 c 3.68707,0.0244 34.67675,-3.33704 68.86596,-7.46946 z m 265.7129,-10.85754 c 0,-10.05565 -0.38621,-18.283 -0.85825,-18.283 -0.47205,0 -32.95111,-6.02511 -72.1757,-13.38912 -39.22458,-7.36402 -72.29626,-12.78418 -73.4926,-12.0448 -2.62127,1.62003 -2.95443,44.88842 -0.34687,45.0469 1.00557,0.0612 29.2528,3.76988 62.77163,8.24168 33.51883,4.47182 66.15398,8.26126 72.52256,8.42095 l 11.57923,0.29039 z m -267.4717,-56.10516 c 35.15655,-8.7354 66.3892,-16.93924 69.40589,-18.23073 5.07748,-2.17376 5.4849,-3.89689 5.4849,-23.19768 0,-14.46354 -0.93607,-21.2087 -3.05616,-22.02226 -1.68089,-0.64502 -34.69545,8.71374 -73.36569,20.79724 -38.67024,12.0835 -70.75286,21.97 -71.2947,21.97 -0.54184,0 -0.98516,8.22735 -0.98516,18.28299 0,16.7435 0.41638,18.283 4.94496,18.283 2.71974,0 33.70942,-7.14715 68.86596,-15.88256 z m 267.4717,-2.40044 c 0,-10.05564 -0.44333,-18.28299 -0.98516,-18.28299 -0.54184,0 -32.62445,-9.8865 -71.2947,-21.97 -38.67024,-12.0835 -71.6848,-21.44226 -73.36569,-20.79724 -4.09332,1.57075 -4.27932,41.72355 -0.20502,44.24165 4.45123,2.75101 131.62793,34.62124 139.14673,34.86989 l 6.70384,0.22169 z m -236.4601,-76.33297 42.66032,-16.30088 0.70493,-21.370028 c 0.55867,-16.936404 -0.0321,-21.652832 -2.84726,-22.733131 -1.9537,-0.749705 -23.93627,7.626575 -48.85015,18.613957 l -45.29797,19.977054 v 19.210768 c 0,18.34271 0.24784,19.20383 5.4849,19.05696 3.01669,-0.0846 24.68205,-7.48922 48.14523,-16.4547 z M 406.59007,115.8606 405.88206,96.183248 361.02953,76.735706 C 336.36064,66.039558 314.65231,57.87324 312.78881,58.588332 c -2.61359,1.002932 -3.22702,6.185689 -2.68326,22.6702 l 0.70492,21.370028 42.66033,16.30088 c 23.46318,8.96548 45.1729,16.3701 48.24381,16.4547 5.42754,0.14953 5.56371,-0.3958 4.87546,-19.52354 z"
   id="path3746"
   inkscape:connector-curvature="0" /><path
   style="fill:#999999;stroke-width:2.43773293"
   d="M 182.82949,534.33479 C 128.52899,513.79853 74.228482,493.16453 62.161704,488.48145 L 40.222107,479.96679 38.108844,434.0839 c -1.162294,-25.23561 -1.31146,-71.54286 -0.33148,-102.90505 2.061272,-65.96664 -1.293531,-59.43605 32.640118,-63.53846 14.652316,-1.7714 20.99428,-3.6339 23.351702,-6.85785 2.300072,-3.14556 3.746774,-19.3994 5.00061,-56.18238 l 1.764236,-51.75637 20.67068,-8.65292 c 11.36888,-4.7591 21.49771,-8.65291 22.50852,-8.65291 1.01082,0 2.59204,-13.9865 3.51384,-31.0811 1.25524,-23.278391 2.59403,-31.779117 5.33288,-33.861574 2.01128,-1.529261 33.24591,-17.78034 69.41026,-36.113504 l 65.75339,-33.3330262 68.83015,34.9954972 68.83017,34.9955 1.5076,27.933069 c 0.82917,15.363188 1.6519,29.733858 1.8283,31.934828 0.17649,2.20097 3.14769,4.7113 6.60291,5.5785 3.4552,0.8672 13.8765,4.97242 23.15847,9.12272 l 16.87625,7.54598 0.27317,18.56605 c 0.15026,10.21133 0.68949,30.63283 1.19829,45.38111 0.50878,14.74829 0.96925,29.55751 1.02322,32.9094 0.18575,11.53286 5.39936,14.91339 27.03441,17.52898 34.18175,4.1324 30.57451,-4.30718 32.28643,75.53837 0.81416,37.97304 0.67672,84.31895 -0.3054,102.99089 l -1.78566,33.94901 -62.16219,23.81638 c -34.18921,13.09899 -63.25917,23.87621 -64.59993,23.94934 -1.57533,0.0858 -2.19006,-18.84048 -1.73764,-53.49934 l 0.70007,-53.63232 h -7.28009 c -10.91447,0 -59.4833,9.78745 -62.98332,12.6922 -2.28172,1.89366 -3.04987,16.84357 -3.04987,59.35749 v 56.82633 l 6.51808,0.77135 c 4.73069,0.55982 -1.45282,3.62252 -22.54903,11.16857 -15.9869,5.71848 -30.71259,10.33143 -32.72371,10.25101 -2.01113,-0.0804 -48.08429,-16.94861 -102.38479,-37.48488 z m 81.40324,-54.05699 c 0.81383,-2.12078 1.47968,-12.87355 1.47968,-23.89503 V 436.3437 l -51.80183,-9.28003 c -28.491,-5.10403 -53.99578,-9.75947 -56.67729,-10.34545 -4.60337,-1.00593 -4.85865,0.12993 -4.57422,20.35103 l 0.30125,21.41643 50.89114,12.7023 c 27.99014,6.98625 52.6935,12.75707 54.89637,12.82403 2.20288,0.067 4.67108,-1.61341 5.4849,-3.73421 z m -137.98138,-50.39087 0.70858,-18.50846 -17.77272,-3.78012 c -24.858959,-5.28732 -45.702012,-8.78523 -52.348684,-8.78523 -5.357349,0 -5.646621,0.8605 -5.646621,16.79708 v 16.79708 l 18.892431,5.09508 c 24.860991,6.70471 49.975524,12.12362 53.020694,11.44016 1.34075,-0.30094 2.7566,-8.87596 3.14632,-19.05559 z m 347.88723,15.16531 c 6.70377,-1.40399 20.69026,-4.82347 31.0811,-7.59883 l 18.89243,-5.04613 V 415.6102 c 0,-15.93658 -0.28926,-16.79708 -5.64662,-16.79708 -6.6357,0 -27.47388,3.49493 -52.24954,8.76316 l -17.67356,3.75806 v 17.71043 c 0,9.74074 0.71135,18.42177 1.58077,19.29119 0.86942,0.86944 3.88611,1.06063 6.70377,0.42487 2.81765,-0.63573 10.60789,-2.30461 17.31165,-3.70859 z M 262.05581,406.12632 c -0.82863,-1.34075 -0.30217,-2.43773 1.16991,-2.43773 1.79326,0 2.44407,-7.03893 1.97217,-21.33017 l -0.70435,-21.33016 -12.18866,-1.58362 c -6.70377,-0.87101 -31.9343,-2.40166 -56.06786,-3.40147 l -43.87919,-1.81784 0.38801,20.46559 0.38802,20.4656 48.36664,6.43279 c 55.59585,7.39428 62.64774,7.92263 60.55531,4.53701 z m 110.69936,-4.45252 49.75603,-6.51728 0.21745,-20.46165 0.21744,-20.46167 -43.87919,1.81389 c -24.13356,0.99767 -49.36409,2.52654 -56.06786,3.39755 l -12.18867,1.58362 -0.6977,23.7679 -0.6977,23.76789 6.79203,-0.18648 c 3.73561,-0.10263 29.18225,-3.11925 56.54807,-6.70377 z m -245.56842,-31.14126 -0.79375,-17.56291 -7.73832,-1.32662 c -4.25607,-0.72964 -21.176319,-2.07409 -37.600545,-2.98766 l -29.86223,-1.66107 v 17.2669 17.26688 l 8.455606,1.58628 c 20.872714,3.91576 35.427716,5.39007 51.268849,5.1932 l 17.06414,-0.21208 z m 365.84426,15.78101 c 11.7316,-1.55057 21.33017,-3.65772 21.33017,-4.68255 0,-1.02482 2.19396,-1.28958 4.87546,-0.58834 4.54416,1.18832 4.87547,0.0748 4.87547,-16.38671 v -17.66167 l -29.86223,1.66107 c -16.42422,0.91357 -33.34448,2.25802 -37.60054,2.98766 l -7.73832,1.32662 -0.79375,17.54251 -0.79375,17.54251 12.18867,0.53908 c 6.70376,0.29648 21.78723,-0.72959 33.51882,-2.28018 z m -365.86533,-74.40005 -0.81482,-18.65446 -34.495869,1.47531 c -20.650843,0.88322 -34.838662,2.5037 -35.349954,4.0376 -0.469744,1.40923 -1.857367,1.94216 -3.083606,1.1843 -1.260988,-0.77932 -2.229526,5.568 -2.229526,14.61121 v 15.98914 l 38.394295,0.005 38.3943,0.005 -0.81482,-18.65446 z m 138.54673,-4.51537 c 0,-23.08667 -0.019,-23.15846 -6.10368,-23.15846 -11.87004,0 -92.73712,5.05566 -100.54714,6.28601 l -7.92263,1.24812 v 19.39139 19.39141 h 57.28672 57.28673 z m 157.23378,3.54261 c 0,-17.65866 -0.48408,-19.70105 -4.87547,-20.56973 -4.73008,-0.9357 -92.02542,-6.13134 -103.01633,-6.13134 -5.2752,0 -5.46278,0.79519 -5.46278,23.15846 v 23.15847 l 56.67729,-0.005 56.67729,-0.005 v -19.6053 z m 101.16592,4.03141 c 0,-12.59304 -0.81886,-15.89895 -4.26603,-17.22286 -2.34632,-0.9011 -19.25709,-2.28006 -37.57948,-3.06432 l -33.31345,-1.42593 -0.81482,18.65446 -0.81481,18.65446 38.3943,-0.005 38.39429,-0.006 z M 198.81685,264.77069 c 31.94197,-4.04083 58.81206,-8.53743 59.71131,-9.99246 0.89926,-1.45504 2.60935,-2.27758 3.8002,-1.82786 1.19085,0.44971 2.48233,-9.46041 2.86995,-22.02248 l 0.70476,-22.84011 -11.67456,1.71865 c -17.6334,2.59588 -130.68082,23.18261 -134.17065,24.43341 -2.06344,0.73957 -3.04716,6.89436 -3.04716,19.06502 v 17.9729 l 11.86493,0.41994 c 6.5257,0.23086 37.99926,-2.8862 69.94122,-6.92701 z m 259.47647,-11.99823 v -18.57143 l -65.20936,-11.67236 c -35.86515,-6.41979 -69.32303,-12.30782 -74.35086,-13.0845 l -9.14149,-1.41214 v 23.55393 c 0,16.67038 0.89052,23.85399 3.04716,24.58068 7.88573,2.6571 116.96377,15.4896 130.41872,15.34314 l 15.23583,-0.16577 V 252.77258 Z M 195.15346,197.52811 c 35.40881,-8.80952 65.76999,-17.17118 67.4693,-18.58149 2.04614,-1.69814 3.08965,-9.48751 3.08965,-23.06293 0,-16.99673 -0.70384,-20.76884 -4.11984,-22.07968 -2.30683,-0.88521 -4.54399,-0.30848 -5.08367,1.31056 -0.53011,1.59032 -1.97721,2.26519 -3.21579,1.49972 -1.23857,-0.76548 -24.4557,5.38155 -51.59362,13.66008 -27.13791,8.27853 -57.29477,17.39367 -67.01523,20.25587 l -17.67356,5.20401 v 18.90558 18.90558 h 6.88156 c 3.78485,0 35.8524,-7.20778 71.2612,-16.0173 z m 263.1286,-2.87513 -0.0122,-18.89243 -67.00014,-20.27139 c -36.85007,-11.14927 -68.01524,-19.64403 -69.25592,-18.87725 -1.24069,0.76679 -2.68951,0.093 -3.21962,-1.49734 -0.53969,-1.61904 -2.77684,-2.19577 -5.08367,-1.31056 -2.92372,1.12194 -4.18546,4.61108 -4.34592,12.0178 -0.34325,15.8478 0.52412,32.24218 1.7726,33.50443 2.32509,2.35068 131.67508,34.07017 139.23256,34.14292 l 7.92356,0.0763 -0.0122,-18.89243 z M 218.83394,121.12069 c 21.09052,-7.90382 40.26612,-15.14105 42.61244,-16.08273 3.64416,-1.46257 4.26603,-5.094434 4.26603,-24.914524 v -23.20237 l -7.01797,1.403595 c -3.85989,0.771977 -25.78612,9.410693 -48.72497,19.197148 l -41.70699,17.793552 -0.0297,19.579609 c -0.0291,19.1747 0.0973,19.59012 6.11253,20.08796 3.37823,0.27958 23.39811,-5.95842 44.48863,-13.86224 z m 188.26213,-6.41825 0.005,-19.61665 -42.0372,-17.738866 C 341.9433,67.590546 320.0037,59.003482 316.30907,58.264562 l -6.71746,-1.343496 v 23.211311 23.211313 l 22.54903,8.68149 c 48.02456,18.48968 61.78863,23.06474 68.25167,22.68623 l 6.69894,-0.39232 0.005,-19.61665 z"
   id="path3748"
   inkscape:connector-curvature="0" /></svg>